<svg width="25" height="24" xmlns="http://www.w3.org/2000/svg"><path d="M16 5.5c0 1.459-.527 2.858-1.464 3.89C13.598 10.42 12.326 11 11 11s-2.598-.58-3.536-1.61C6.527 8.357 6 6.958 6 5.5c0-.722.13-1.437.38-2.105a5.566 5.566 0 0 1 1.084-1.784A4.997 4.997 0 0 1 9.087.419 4.608 4.608 0 0 1 11 0c.657 0 1.307.142 1.913.419a4.998 4.998 0 0 1 1.623 1.192c.464.51.832 1.117 1.083 1.784A5.98 5.98 0 0 1 16 5.5z"/><path clip-rule="evenodd" d="M17.682 18.24a.926.926 0 0 1 1.299.053l2.193 2.293 2.193-2.293a.927.927 0 0 1 1.353 0c.373.39.373 1.024 0 1.414l-2.87 3a.927.927 0 0 1-1.352 0l-2.244-2.345-2.675 2.397a.928.928 0 0 1-1.349-.108 1.032 1.032 0 0 1 .104-1.41l3.348-3z"/><path d="M17.669 15.148c.339-.077.485-.512.213-.73A10.954 10.954 0 0 0 11 12C4.925 12 0 16.925 0 23c0 .183.004.364.013.544.013.259.23.456.489.456h12.607c.308 0 .504-.336.382-.619a6.002 6.002 0 0 1 4.178-8.233z"/></svg>