<?xml version="1.0" standalone="no"?><!DOCTYPE svg PUBLIC "-//W3C//DTD SVG 1.1//EN" "http://www.w3.org/Graphics/SVG/1.1/DTD/svg11.dtd"><svg t="1695021842876" class="icon" viewBox="0 0 1024 1024" version="1.1" xmlns="http://www.w3.org/2000/svg" p-id="2934" xmlns:xlink="http://www.w3.org/1999/xlink" width="25" height="25"><path d="M774.4 753.4c0-44.8-12.8-89.6-38.4-121.6-44.8-51.2-96-76.8-160-76.8-38.4 0-76.8 0-115.2 0-44.8 0-83.2 12.8-121.6 38.4-44.8 32-70.4 76.8-76.8 128C256 779 262.4 807 256 871c6.4 0 19.2 6.4 25.6 6.4 76.8 19.2 147.2 22.4 224 22.4 44.8 0 126.9 4.7 172.233 3.367 60-5 73.567-6.233 82.667-17.333C767.167 880.5 768 871 768 864.6 774.4 813.4 774.4 798.2 774.4 753.4z" fill="#ffffff" p-id="2935"></path><path d="M358.4 531.2c12.8-6.4 19.2-6.4 32-12.8-38.4-38.4-57.6-76.8-57.6-128-44.8 0-89.6 0-134.4 0-25.6 0-51.2 6.4-70.4 12.8C57.6 428.8 0 499.2 0 576c0 51.2 0 63.4 0 121 0 6.4 0 6.4 6.4 12.8 51.2 12.8 100.008 9.88 151.208 16.28 19.2 0 47.692-1.58 66.892-1.58 0-12.8-0.5-1.9-0.5-14.7 0-19.2 8.1-40.1 14.5-59.3C274.5 572.5 302.5 568.5 358.4 531.2z" fill="#ffffff" p-id="2936"></path><path d="M1024 588.8c0-25.6-6.4-57.6-19.2-83.2-38.4-76.8-96-115.2-179.2-115.2-121.6 0 0 0-121.6 0 0 51.2-19.2 96-57.6 128 6.4 0 12.8 6.4 12.8 6.4 32 12.8 64 32 89.6 57.6 38.4 44.8 57.6 59 57.6 116.6 0 12.8 0.1 6.7 0.1 19.5 32-6.4 48 2.4 80-4 38.4-6.4 92.7-2.7 131.1-21.9 6.4 0 6.4-6.4 6.4-12.8C1024 647.8 1024 633.6 1024 588.8z" fill="#ffffff" p-id="2937"></path><path d="M518.4 537.6c83.2 0 153.6-70.4 147.2-153.6 0-83.2-70.4-147.2-147.2-147.2-83.2 0-153.6 64-153.6 147.2C371.2 467.2 435.2 537.6 518.4 537.6z" fill="#ffffff" p-id="2938"></path><path d="M704 371.2c19.2 6.4 38.4 6.8 64 6.8 83.2 0 153.6-64.4 147.2-147.6 0-83.2-70.4-147.2-147.2-147.2-83.2 0-153.6 64-153.6 147.2C665.6 256 697.6 307.2 704 371.2z" fill="#ffffff" p-id="2939"></path><path d="M256 378c25.6 0 57.6-0.4 76.8-13.2 6.4-51.2 32-96 70.4-121.6l0-6.4c0-83.2-70.4-147.2-147.2-147.2-83.2 0-153.6 64-153.6 147.2C102.4 313.6 172.8 378 256 378z" fill="#ffffff" p-id="2940"></path></svg>