<svg width="16" height="16" xmlns="http://www.w3.org/2000/svg"><path d="M14.113 13.159c.004-.005.01-.01.013-.016A7.96 7.96 0 0 0 15.999 8a7.969 7.969 0 0 0-1.871-5.143c-.004-.005-.01-.009-.013-.014-.02-.023-.037-.045-.057-.066-.007-.01-.014-.016-.021-.025l-.074-.084-.002-.002-.082-.091-.001-.002a8.234 8.234 0 0 0-.174-.18l-.001-.002-.086-.086-.006-.005a3.18 3.18 0 0 0-.08-.077l-.028-.027a1.368 1.368 0 0 0-.054-.05l-.018-.017A7.962 7.962 0 0 0 8 0a7.97 7.97 0 0 0-5.434 2.129l-.018.017a1.438 1.438 0 0 0-.053.052l-.029.027-.08.077-.006.005-.085.086-.002.002c-.059.059-.116.12-.173.18l-.002.002c-.029.03-.055.06-.082.09l-.002.003c-.025.026-.05.055-.073.084l-.022.025c-.02.021-.037.044-.057.066l-.012.014A7.969 7.969 0 0 0-.001 8a7.97 7.97 0 0 0 1.871 5.143c.004.005.01.01.013.016l.055.066.022.025.073.084.002.004c.027.03.053.06.082.089l.002.002.171.18.002.002c.028.028.055.057.084.084l.005.005A7.985 7.985 0 0 0 8 16a7.97 7.97 0 0 0 5.612-2.3l.006-.005.084-.084.002-.002a5.36 5.36 0 0 0 .171-.18l.002-.002.082-.09c0-.001.002-.001.002-.003a1.68 1.68 0 0 0 .073-.084l.021-.025.06-.066zm.074-2.546a6.706 6.706 0 0 1-.968 1.61 7.934 7.934 0 0 0-1.456-.998c.207-.838.336-1.757.37-2.725h2.563a6.675 6.675 0 0 1-.51 2.113zm.508-3.113h-2.562a13.351 13.351 0 0 0-.37-2.725 7.933 7.933 0 0 0 1.456-.998A6.676 6.676 0 0 1 14.695 7.5zm-4.084-5.688c.71.3 1.354.715 1.922 1.236-.33.281-.685.531-1.06.747-.281-.804-.64-1.502-1.058-2.061a6.4 6.4 0 0 1 .197.079zM8.994 14.323a2.021 2.021 0 0 1-.495.293v-3.312a6.952 6.952 0 0 1 2.066.467c-.148.44-.32.845-.518 1.211-.31.579-.675 1.041-1.053 1.341zm1.053-11.305c.197.368.37.773.518 1.21a6.915 6.915 0 0 1-2.066.468v-3.31c.164.066.33.162.495.293.378.298.743.76 1.053 1.339zM8.5 10.302V8.5h2.634c-.029.79-.127 1.555-.291 2.282l-.006.022a7.945 7.945 0 0 0-2.337-.502zm0-2.802V5.698a7.946 7.946 0 0 0 2.337-.502l.006.022c.164.727.262 1.49.291 2.282H8.499zm-1 1v1.802a7.946 7.946 0 0 0-2.337.502l-.006-.022a12.38 12.38 0 0 1-.29-2.282H7.5zm-2.634-1c.029-.79.127-1.555.291-2.282l.006-.022a7.934 7.934 0 0 0 2.337.502V7.5H4.865zM7.5 11.304v3.31a1.998 1.998 0 0 1-.495-.293c-.378-.298-.744-.762-1.055-1.34a8.071 8.071 0 0 1-.518-1.211 6.97 6.97 0 0 1 2.068-.466zm0-6.608a6.948 6.948 0 0 1-2.066-.467c.148-.44.32-.845.518-1.211.31-.579.675-1.043 1.055-1.341a2.02 2.02 0 0 1 .495-.293v3.312H7.5zM5.387 1.813l.196-.08c-.418.56-.777 1.258-1.057 2.062a6.921 6.921 0 0 1-1.06-.747 6.675 6.675 0 0 1 1.92-1.236zM1.812 5.388a6.706 6.706 0 0 1 .967-1.611c.445.384.933.72 1.456.998a13.35 13.35 0 0 0-.37 2.725H1.303a6.65 6.65 0 0 1 .509-2.112zM1.302 8.5h2.563c.034.968.163 1.887.37 2.725a7.935 7.935 0 0 0-1.456.998A6.676 6.676 0 0 1 1.303 8.5zm4.085 5.688a6.676 6.676 0 0 1-1.922-1.236c.33-.282.686-.53 1.06-.747.281.804.64 1.502 1.058 2.061a6.397 6.397 0 0 1-.196-.079zm5.224 0c-.066.026-.13.053-.196.078.418-.559.777-1.257 1.057-2.06.375.214.73.464 1.061.746a6.678 6.678 0 0 1-1.921 1.236z"/></svg>