<svg width="24" height="24" xmlns="http://www.w3.org/2000/svg"><path d="M21.498 24a.484.484 0 0 0 .489-.456c.009-.18.013-.361.013-.544 0-6.075-4.925-11-11-11S0 16.925 0 23c0 .183.004.364.013.544.013.259.23.456.489.456h20.996zM16 5.5c0 1.459-.527 2.858-1.464 3.89C13.598 10.42 12.326 11 11 11s-2.598-.58-3.536-1.61C6.527 8.357 6 6.958 6 5.5c0-.722.13-1.437.38-2.105a5.566 5.566 0 0 1 1.084-1.784A4.997 4.997 0 0 1 9.087.419 4.608 4.608 0 0 1 11 0c.657 0 1.307.142 1.913.419a4.998 4.998 0 0 1 1.623 1.192c.464.51.832 1.117 1.083 1.784A5.98 5.98 0 0 1 16 5.5z"/><rect x="18" y="9" width="6" height="2" rx="1"/><rect x="22" y="7" width="6" height="2" rx="1" transform="rotate(90 22 7)"/></svg>