<svg width="24" height="24" xmlns="http://www.w3.org/2000/svg"><path d="M19.123 4.318H15.02a.756.756 0 0 0-.736.583 2.348 2.348 0 0 1-4.57 0 .755.755 0 0 0-.736-.583H4.875a.876.876 0 0 0-.876.876v5.015a.876.876 0 0 0 .876.876h1.292c.11 0 .2.09.2.2v7.52a.876.876 0 0 0 .876.877h9.512a.876.876 0 0 0 .876-.876v-7.522c0-.11.09-.2.2-.2h1.292A.876.876 0 0 0 20 10.21V5.194a.876.876 0 0 0-.876-.876zM18.77 9.65a.2.2 0 0 1-.2.2H16.6a.2.2 0 0 0-.2.2v8.2a.2.2 0 0 1-.2.2H7.8a.2.2 0 0 1-.2-.2v-8.2a.2.2 0 0 0-.2-.2h-2a.2.2 0 0 1-.2-.2v-3.9c0-.11.09-.2.2-.2h3.084A3.785 3.785 0 0 0 12 7.94a3.785 3.785 0 0 0 3.516-2.39h3.054c.11 0 .2.09.2.2v3.9z"/></svg>